<svg width="134" height="40" viewBox="0 0 134 40" fill="none" xmlns="http://www.w3.org/2000/svg">
<path d="M49.5334 26.1415C48.3934 26.1415 47.4094 25.9555 46.5814 25.5835C45.7654 25.1995 45.1294 24.6475 44.6734 23.9275C44.2294 23.1955 43.9834 22.3075 43.9354 21.2635C43.9234 20.7475 43.9174 20.2015 43.9174 19.6255C43.9174 19.0375 43.9234 18.4795 43.9354 17.9515C43.9834 16.9315 44.2354 16.0675 44.6914 15.3595C45.1474 14.6515 45.7894 14.1115 46.6174 13.7395C47.4454 13.3675 48.4174 13.1815 49.5334 13.1815C50.4334 13.1815 51.2314 13.2955 51.9274 13.5235C52.6234 13.7395 53.2054 14.0335 53.6734 14.4055C54.1534 14.7775 54.5134 15.1855 54.7534 15.6295C55.0054 16.0735 55.1374 16.5115 55.1494 16.9435C55.1614 17.0515 55.1254 17.1415 55.0414 17.2135C54.9694 17.2855 54.8794 17.3215 54.7714 17.3215H52.1434C52.0114 17.3215 51.9094 17.3035 51.8374 17.2675C51.7774 17.2195 51.7234 17.1535 51.6754 17.0695C51.5914 16.8895 51.4654 16.7035 51.2974 16.5115C51.1414 16.3075 50.9194 16.1335 50.6314 15.9895C50.3554 15.8455 49.9894 15.7735 49.5334 15.7735C48.8494 15.7735 48.3094 15.9535 47.9134 16.3135C47.5294 16.6735 47.3194 17.2495 47.2834 18.0415C47.2474 19.0735 47.2474 20.1175 47.2834 21.1735C47.3194 22.0135 47.5414 22.6195 47.9494 22.9915C48.3574 23.3635 48.8974 23.5495 49.5694 23.5495C50.0254 23.5495 50.4274 23.4715 50.7754 23.3155C51.1354 23.1595 51.4174 22.9195 51.6214 22.5955C51.8254 22.2595 51.9274 21.8335 51.9274 21.3175V20.9755H50.2354C50.1034 20.9755 49.9894 20.9335 49.8934 20.8495C49.8094 20.7535 49.7674 20.6395 49.7674 20.5075V19.1755C49.7674 19.0435 49.8094 18.9355 49.8934 18.8515C49.9894 18.7555 50.1034 18.7075 50.2354 18.7075H54.7714C54.9034 18.7075 55.0114 18.7555 55.0954 18.8515C55.1794 18.9355 55.2214 19.0435 55.2214 19.1755V21.2275C55.2214 22.2595 54.9874 23.1415 54.5194 23.8735C54.0514 24.6055 53.3854 25.1695 52.5214 25.5655C51.6694 25.9495 50.6734 26.1415 49.5334 26.1415ZM61.5165 26.1415C60.5085 26.1415 59.6565 25.9795 58.9605 25.6555C58.2765 25.3315 57.7485 24.8695 57.3765 24.2695C57.0165 23.6575 56.8125 22.9315 56.7645 22.0915C56.7525 21.8515 56.7465 21.5815 56.7465 21.2815C56.7465 20.9695 56.7525 20.6995 56.7645 20.4715C56.8125 19.6195 57.0285 18.8935 57.4125 18.2935C57.7965 17.6935 58.3305 17.2315 59.0145 16.9075C59.7105 16.5835 60.5445 16.4215 61.5165 16.4215C62.5005 16.4215 63.3345 16.5835 64.0185 16.9075C64.7145 17.2315 65.2545 17.6935 65.6385 18.2935C66.0225 18.8935 66.2385 19.6195 66.2865 20.4715C66.2985 20.6995 66.3045 20.9695 66.3045 21.2815C66.3045 21.5815 66.2985 21.8515 66.2865 22.0915C66.2385 22.9315 66.0285 23.6575 65.6565 24.2695C65.2965 24.8695 64.7685 25.3315 64.0725 25.6555C63.3885 25.9795 62.5365 26.1415 61.5165 26.1415ZM61.5165 23.9455C62.0565 23.9455 62.4465 23.7835 62.6865 23.4595C62.9385 23.1355 63.0825 22.6495 63.1185 22.0015C63.1305 21.8215 63.1365 21.5815 63.1365 21.2815C63.1365 20.9815 63.1305 20.7415 63.1185 20.5615C63.0825 19.9255 62.9385 19.4455 62.6865 19.1215C62.4465 18.7855 62.0565 18.6175 61.5165 18.6175C60.9885 18.6175 60.5985 18.7855 60.3465 19.1215C60.0945 19.4455 59.9565 19.9255 59.9325 20.5615C59.9205 20.7415 59.9145 20.9815 59.9145 21.2815C59.9145 21.5815 59.9205 21.8215 59.9325 22.0015C59.9565 22.6495 60.0945 23.1355 60.3465 23.4595C60.5985 23.7835 60.9885 23.9455 61.5165 23.9455Z" fill="black"/>
<path d="M73.4388 26.1415C72.2988 26.1415 71.3208 25.9555 70.5048 25.5835C69.7008 25.2115 69.0708 24.6655 68.6148 23.9455C68.1708 23.2255 67.9248 22.3315 67.8768 21.2635C67.8648 20.7715 67.8588 20.2435 67.8588 19.6795C67.8588 19.1155 67.8648 18.5755 67.8768 18.0595C67.9248 17.0155 68.1768 16.1335 68.6328 15.4135C69.0888 14.6815 69.7248 14.1295 70.5408 13.7575C71.3568 13.3735 72.3228 13.1815 73.4388 13.1815C74.2308 13.1815 74.9628 13.2835 75.6348 13.4875C76.3068 13.6795 76.8948 13.9675 77.3988 14.3515C77.9028 14.7235 78.2928 15.1795 78.5688 15.7195C78.8568 16.2475 79.0068 16.8475 79.0188 17.5195C79.0308 17.6275 78.9948 17.7175 78.9108 17.7895C78.8388 17.8615 78.7488 17.8975 78.6408 17.8975H76.2108C76.0548 17.8975 75.9348 17.8675 75.8508 17.8075C75.7668 17.7355 75.6948 17.6095 75.6348 17.4295C75.4668 16.7935 75.1908 16.3615 74.8068 16.1335C74.4348 15.8935 73.9728 15.7735 73.4208 15.7735C72.7608 15.7735 72.2388 15.9595 71.8548 16.3315C71.4708 16.6915 71.2608 17.2975 71.2248 18.1495C71.1888 19.1335 71.1888 20.1415 71.2248 21.1735C71.2608 22.0255 71.4708 22.6375 71.8548 23.0095C72.2388 23.3695 72.7608 23.5495 73.4208 23.5495C73.9728 23.5495 74.4408 23.4295 74.8248 23.1895C75.2088 22.9495 75.4788 22.5175 75.6348 21.8935C75.6828 21.7135 75.7488 21.5935 75.8328 21.5335C75.9288 21.4615 76.0548 21.4255 76.2108 21.4255H78.6408C78.7488 21.4255 78.8388 21.4615 78.9108 21.5335C78.9948 21.6055 79.0308 21.6955 79.0188 21.8035C79.0068 22.4755 78.8568 23.0815 78.5688 23.6215C78.2928 24.1495 77.9028 24.6055 77.3988 24.9895C76.8948 25.3615 76.3068 25.6495 75.6348 25.8535C74.9628 26.0455 74.2308 26.1415 73.4388 26.1415ZM85.1415 26.1415C84.1335 26.1415 83.2815 25.9795 82.5855 25.6555C81.9015 25.3315 81.3735 24.8695 81.0015 24.2695C80.6415 23.6575 80.4375 22.9315 80.3895 22.0915C80.3775 21.8515 80.3715 21.5815 80.3715 21.2815C80.3715 20.9695 80.3775 20.6995 80.3895 20.4715C80.4375 19.6195 80.6535 18.8935 81.0375 18.2935C81.4215 17.6935 81.9555 17.2315 82.6395 16.9075C83.3355 16.5835 84.1695 16.4215 85.1415 16.4215C86.1255 16.4215 86.9595 16.5835 87.6435 16.9075C88.3395 17.2315 88.8795 17.6935 89.2635 18.2935C89.6475 18.8935 89.8635 19.6195 89.9115 20.4715C89.9235 20.6995 89.9295 20.9695 89.9295 21.2815C89.9295 21.5815 89.9235 21.8515 89.9115 22.0915C89.8635 22.9315 89.6535 23.6575 89.2815 24.2695C88.9215 24.8695 88.3935 25.3315 87.6975 25.6555C87.0135 25.9795 86.1615 26.1415 85.1415 26.1415ZM85.1415 23.9455C85.6815 23.9455 86.0715 23.7835 86.3115 23.4595C86.5635 23.1355 86.7075 22.6495 86.7435 22.0015C86.7555 21.8215 86.7615 21.5815 86.7615 21.2815C86.7615 20.9815 86.7555 20.7415 86.7435 20.5615C86.7075 19.9255 86.5635 19.4455 86.3115 19.1215C86.0715 18.7855 85.6815 18.6175 85.1415 18.6175C84.6135 18.6175 84.2235 18.7855 83.9715 19.1215C83.7195 19.4455 83.5815 19.9255 83.5575 20.5615C83.5455 20.7415 83.5395 20.9815 83.5395 21.2815C83.5395 21.5815 83.5455 21.8215 83.5575 22.0015C83.5815 22.6495 83.7195 23.1355 83.9715 23.4595C84.2235 23.7835 84.6135 23.9455 85.1415 23.9455ZM92.1498 25.9615C92.0178 25.9615 91.9098 25.9195 91.8258 25.8355C91.7418 25.7515 91.6998 25.6435 91.6998 25.5115V17.0515C91.6998 16.9315 91.7418 16.8295 91.8258 16.7455C91.9098 16.6495 92.0178 16.6015 92.1498 16.6015H94.2198C94.3518 16.6015 94.4598 16.6495 94.5438 16.7455C94.6278 16.8295 94.6698 16.9315 94.6698 17.0515V17.7715C94.9938 17.3995 95.3778 17.1115 95.8218 16.9075C96.2778 16.7035 96.7878 16.6015 97.3518 16.6015H98.1438C98.2638 16.6015 98.3658 16.6435 98.4498 16.7275C98.5458 16.8115 98.5938 16.9195 98.5938 17.0515V18.9055C98.5938 19.0255 98.5458 19.1335 98.4498 19.2295C98.3658 19.3135 98.2638 19.3555 98.1438 19.3555H96.3978C95.9058 19.3555 95.5218 19.4935 95.2458 19.7695C94.9818 20.0335 94.8498 20.4115 94.8498 20.9035V25.5115C94.8498 25.6435 94.8018 25.7515 94.7058 25.8355C94.6218 25.9195 94.5138 25.9615 94.3818 25.9615H92.1498ZM104.231 26.1415C103.223 26.1415 102.371 25.9795 101.675 25.6555C100.991 25.3315 100.463 24.8695 100.091 24.2695C99.7313 23.6575 99.5273 22.9315 99.4793 22.0915C99.4673 21.8515 99.4613 21.5815 99.4613 21.2815C99.4613 20.9695 99.4673 20.6995 99.4793 20.4715C99.5273 19.6195 99.7433 18.8935 100.127 18.2935C100.511 17.6935 101.045 17.2315 101.729 16.9075C102.425 16.5835 103.259 16.4215 104.231 16.4215C105.215 16.4215 106.049 16.5835 106.733 16.9075C107.429 17.2315 107.969 17.6935 108.353 18.2935C108.737 18.8935 108.953 19.6195 109.001 20.4715C109.013 20.6995 109.019 20.9695 109.019 21.2815C109.019 21.5815 109.013 21.8515 109.001 22.0915C108.953 22.9315 108.743 23.6575 108.371 24.2695C108.011 24.8695 107.483 25.3315 106.787 25.6555C106.103 25.9795 105.251 26.1415 104.231 26.1415ZM104.231 23.9455C104.771 23.9455 105.161 23.7835 105.401 23.4595C105.653 23.1355 105.797 22.6495 105.833 22.0015C105.845 21.8215 105.851 21.5815 105.851 21.2815C105.851 20.9815 105.845 20.7415 105.833 20.5615C105.797 19.9255 105.653 19.4455 105.401 19.1215C105.161 18.7855 104.771 18.6175 104.231 18.6175C103.703 18.6175 103.313 18.7855 103.061 19.1215C102.809 19.4455 102.671 19.9255 102.647 20.5615C102.635 20.7415 102.629 20.9815 102.629 21.2815C102.629 21.5815 102.635 21.8215 102.647 22.0015C102.671 22.6495 102.809 23.1355 103.061 23.4595C103.313 23.7835 103.703 23.9455 104.231 23.9455ZM111.24 25.9615C111.108 25.9615 111 25.9195 110.916 25.8355C110.832 25.7515 110.79 25.6435 110.79 25.5115V17.0515C110.79 16.9195 110.832 16.8115 110.916 16.7275C111 16.6435 111.108 16.6015 111.24 16.6015H113.31C113.442 16.6015 113.55 16.6435 113.634 16.7275C113.718 16.8115 113.76 16.9195 113.76 17.0515V17.7355C114.072 17.3635 114.48 17.0515 114.984 16.7995C115.488 16.5475 116.082 16.4215 116.766 16.4215C117.462 16.4215 118.074 16.5775 118.602 16.8895C119.142 17.2015 119.562 17.6635 119.862 18.2755C120.174 18.8755 120.33 19.6135 120.33 20.4895V25.5115C120.33 25.6435 120.282 25.7515 120.186 25.8355C120.102 25.9195 120 25.9615 119.88 25.9615H117.612C117.492 25.9615 117.384 25.9195 117.288 25.8355C117.204 25.7515 117.162 25.6435 117.162 25.5115V20.5975C117.162 20.0335 117.024 19.6015 116.748 19.3015C116.484 18.9895 116.088 18.8335 115.56 18.8335C115.068 18.8335 114.672 18.9895 114.372 19.3015C114.084 19.6015 113.94 20.0335 113.94 20.5975V25.5115C113.94 25.6435 113.892 25.7515 113.796 25.8355C113.712 25.9195 113.61 25.9615 113.49 25.9615H111.24ZM125.147 26.1415C124.499 26.1415 123.917 26.0215 123.401 25.7815C122.897 25.5295 122.495 25.1935 122.195 24.7735C121.895 24.3535 121.745 23.8795 121.745 23.3515C121.745 22.4995 122.093 21.8275 122.789 21.3355C123.485 20.8315 124.409 20.4895 125.561 20.3095L127.811 19.9675V19.7155C127.811 19.2835 127.721 18.9535 127.541 18.7255C127.361 18.4975 127.031 18.3835 126.551 18.3835C126.215 18.3835 125.939 18.4495 125.723 18.5815C125.519 18.7135 125.357 18.8935 125.237 19.1215C125.129 19.2775 124.979 19.3555 124.787 19.3555H122.771C122.639 19.3555 122.537 19.3195 122.465 19.2475C122.393 19.1635 122.363 19.0675 122.375 18.9595C122.375 18.7435 122.453 18.4975 122.609 18.2215C122.777 17.9335 123.029 17.6515 123.365 17.3755C123.701 17.0995 124.133 16.8715 124.661 16.6915C125.189 16.5115 125.825 16.4215 126.569 16.4215C127.349 16.4215 128.015 16.5115 128.567 16.6915C129.119 16.8715 129.563 17.1235 129.899 17.4475C130.247 17.7715 130.505 18.1555 130.673 18.5995C130.841 19.0315 130.925 19.5115 130.925 20.0395V25.5115C130.925 25.6435 130.877 25.7515 130.781 25.8355C130.697 25.9195 130.595 25.9615 130.475 25.9615H128.387C128.255 25.9615 128.147 25.9195 128.063 25.8355C127.979 25.7515 127.937 25.6435 127.937 25.5115V24.8815C127.781 25.1095 127.571 25.3195 127.307 25.5115C127.043 25.7035 126.731 25.8535 126.371 25.9615C126.023 26.0815 125.615 26.1415 125.147 26.1415ZM125.993 24.0895C126.341 24.0895 126.653 24.0175 126.929 23.8735C127.217 23.7175 127.439 23.4835 127.595 23.1715C127.763 22.8475 127.847 22.4455 127.847 21.9655V21.7135L126.317 21.9835C125.753 22.0795 125.339 22.2295 125.075 22.4335C124.823 22.6255 124.697 22.8535 124.697 23.1175C124.697 23.3215 124.757 23.4955 124.877 23.6395C124.997 23.7835 125.153 23.8975 125.345 23.9815C125.537 24.0535 125.753 24.0895 125.993 24.0895Z" fill="#EC5863"/>
<path d="M13.6114 4.98869C14.975 4.48917 16.4737 5.16285 16.9581 6.49273C17.3289 7.51091 16.9971 8.61769 16.2105 9.30529L16.6355 10.5163L17.3118 11.3316C17.4661 11.5181 17.7003 11.6074 17.935 11.5772C18.5677 11.4959 19.1965 11.4928 19.8122 11.5604C20.0209 11.5836 20.2284 11.5116 20.3782 11.3595L20.8662 10.8661L21.226 9.77184C20.9199 9.33293 20.8163 8.75165 20.9977 8.19933C21.3057 7.26306 22.3117 6.77916 23.2063 7.16256C23.977 7.49244 24.3963 8.38808 24.1707 9.22153C24.0273 9.75239 23.6645 10.15 23.218 10.3468L22.8197 11.5594L22.9105 12.2276C22.9417 12.4573 23.0723 12.6579 23.263 12.7782C23.9043 13.1847 24.4932 13.6817 25.0102 14.2562C25.1839 14.4496 25.4432 14.5325 25.6923 14.4801L26.9747 14.2111L28.4234 13.3717C28.4309 12.6274 28.8117 11.9079 29.4819 11.5195C30.4952 10.9326 31.7785 11.327 32.3184 12.4024C32.8059 13.3725 32.4999 14.592 31.617 15.1892C30.9276 15.6547 30.0864 15.6377 29.437 15.2402L27.9797 16.084L27.1659 16.9871C26.9475 17.2294 26.8696 17.572 26.953 17.8928C26.9535 17.8947 26.9538 17.896 26.9543 17.8979C27.0969 18.4507 27.1835 19.0063 27.2193 19.557C27.24 19.8851 27.4178 20.1803 27.6961 20.3371L28.7582 20.9353L30.8634 21.35C31.2345 21.0124 31.7457 20.8491 32.2681 20.9515C33.2047 21.1363 33.8077 22.1048 33.5677 23.0797C33.3613 23.9145 32.574 24.4703 31.7507 24.3609C31.1892 24.2863 30.7359 23.9338 30.4925 23.4598L28.3736 23.0427L27.0667 23.2088C26.8258 23.24 26.6155 23.3975 26.5172 23.628C26.1262 24.5379 25.5867 25.3748 24.9205 26.0973C24.755 26.2768 24.6929 26.5338 24.753 26.7744L25.0777 28.0843L25.8796 29.3942C26.7617 29.2563 27.6794 29.6536 28.1886 30.4856C28.8731 31.6034 28.5626 33.0834 27.4973 33.8046C26.4325 34.5257 24.9836 34.2119 24.2858 33.1081C23.7971 32.3353 23.7918 31.382 24.1878 30.6257L23.3366 29.2354L22.29 28.3384C22.1349 28.2048 21.9238 28.1695 21.7347 28.2397C21.5247 28.3178 21.3107 28.3876 21.0918 28.4485C19.9024 28.7796 18.7031 28.8223 17.5625 28.6198C17.3953 28.5905 17.2243 28.6402 17.0964 28.7557L16.5347 29.2642L16.117 30.336C16.3996 30.7923 16.4718 31.3783 16.2613 31.919C15.9035 32.8366 14.8732 33.2616 14.0007 32.8274C13.2493 32.4535 12.8781 31.535 13.1478 30.7157C13.3196 30.1939 13.7023 29.8178 14.1589 29.6473L14.6216 28.4594L14.5356 27.4161C13.7012 26.8717 12.9585 26.1731 12.3513 25.3474L10.9241 25.4942L9.5882 26.1823C9.5969 27.1158 9.13575 28.0039 8.32635 28.4338C7.18265 29.0407 5.77777 28.5034 5.18884 27.2331C4.60007 25.9634 5.04913 24.4421 6.19283 23.8352C7.04872 23.3809 8.05027 23.5673 8.74713 24.2224L10.007 23.573L10.8813 22.5962C10.9384 22.5323 10.9596 22.4424 10.9379 22.3584L10.9376 22.3571C10.5335 20.7902 10.5747 19.2063 10.9801 17.7506C11.0019 17.6707 10.9855 17.5846 10.9339 17.521L10.1797 16.5825L8.55454 15.6942C8.10693 15.8994 7.57627 15.8988 7.10959 15.6434C6.26652 15.182 5.96273 14.0748 6.46527 13.2157C6.90645 12.4624 7.84615 12.1764 8.60921 12.5626C9.10313 12.8124 9.42175 13.2797 9.51594 13.7966L11.1411 14.6849L12.2978 14.7983C12.3781 14.8064 12.4563 14.7711 12.5073 14.7061C13.0319 14.0312 13.6565 13.4354 14.366 12.9467C14.5606 12.8119 14.6816 12.5886 14.6847 12.3453L14.6966 11.2518L14.2433 9.96133C13.2603 9.88759 12.3712 9.26768 12.0188 8.30058C11.5344 6.9707 12.2475 5.48757 13.6114 4.98869Z" fill="#EC5863"/>
<path d="M24.8759 18.4765C23.9984 15.0737 20.632 13.0542 17.357 13.966C14.082 14.8778 12.1384 18.3756 13.016 21.7785C13.8935 25.1813 17.2598 27.2008 20.5349 26.289C23.8099 25.3772 25.7535 21.8794 24.8759 18.4765Z" fill="#F58A97"/>
<path d="M20.0506 24.4109C17.0827 25.2372 14.0401 23.6565 12.8422 20.8204C12.8761 21.1391 12.9336 21.4592 13.016 21.7785C13.8935 25.1814 17.2598 27.2008 20.5349 26.289C23.81 25.3771 25.7535 21.8795 24.8759 18.4765C24.7936 18.1573 24.6894 17.8502 24.5654 17.5566C24.8927 20.635 23.0184 23.5847 20.0506 24.4109Z" fill="#F07281"/>
<path d="M10.8387 33.496C10.5888 32.5269 9.63018 31.9518 8.69754 32.2115C7.7649 32.4711 7.21143 33.4672 7.46133 34.4362C7.71123 35.4053 8.66986 35.9804 9.6025 35.7207C10.5351 35.4611 11.0886 34.465 10.8387 33.496Z" fill="#EB5569"/>
<path d="M32.6487 27.9379C32.4836 27.2979 31.8504 26.918 31.2344 27.0895C30.6184 27.261 30.2528 27.9189 30.4179 28.559C30.583 29.1991 31.2161 29.5789 31.8322 29.4074C32.4482 29.2359 32.8137 28.578 32.6487 27.9379Z" fill="#EB5569"/>
<path d="M29.521 6.00213C29.2779 5.05936 28.3453 4.49988 27.4379 4.75249C26.5306 5.0051 25.9921 5.97416 26.2352 6.91693C26.4783 7.8597 27.411 8.41918 28.3183 8.16656C29.2257 7.91395 29.7642 6.9449 29.521 6.00213Z" fill="#EB5569"/>
<path d="M19.33 22.0477C19.1033 21.1687 18.2338 20.6471 17.3879 20.8826C16.5419 21.1181 16.0399 22.0216 16.2666 22.9005C16.4932 23.7795 17.3628 24.3011 18.2087 24.0656C19.0546 23.8301 19.5566 22.9266 19.33 22.0477Z" fill="#EB5569"/>
<path d="M23.2689 19.5818C23.1146 18.9835 22.5228 18.6285 21.947 18.7888C21.3712 18.9491 21.0295 19.564 21.1838 20.1623C21.3381 20.7606 21.9299 21.1156 22.5057 20.9553C23.0815 20.795 23.4232 20.18 23.2689 19.5818Z" fill="#EB5569"/>
<path d="M19.1025 17.0961C18.9729 16.5937 18.4759 16.2956 17.9924 16.4302C17.5089 16.5648 17.222 17.0812 17.3516 17.5835C17.4811 18.0859 17.9781 18.384 18.4616 18.2494C18.9451 18.1148 19.232 17.5984 19.1025 17.0961Z" fill="#EB5569"/>
</svg>
